<?xml version="1.0" encoding="utf-8"?>
<!-- Generator: Adobe Illustrator 26.5.0, SVG Export Plug-In . SVG Version: 6.00 Build 0)  -->
<svg version="1.1" id="Layer_1" xmlns="http://www.w3.org/2000/svg" xmlns:xlink="http://www.w3.org/1999/xlink" x="0px" y="0px"
	 viewBox="0 0 320 120" style="enable-background:new 0 0 320 120;" xml:space="preserve">
<style type="text/css">
	.Arched_x0020_Green{fill:url(#SVGID_1_);stroke:#FFFFFF;stroke-width:0.25;stroke-miterlimit:1;}
	.st0{display:none;fill:#CE8B3D;}
	.st1{display:none;fill:#DACBA9;}
	.st2{fill:#414042;}
	.st3{fill:#FFFFFF;}
	.st4{fill:#929EBC;}
	.st5{fill:#E2E2E2;}
	.st6{fill:#EF4F7F;}
</style>
<linearGradient id="SVGID_1_" gradientUnits="userSpaceOnUse" x1="0" y1="180" x2="0.7071" y2="179.2929">
	<stop  offset="0" style="stop-color:#20AC4B"/>
	<stop  offset="0.9831" style="stop-color:#19361A"/>
</linearGradient>
<path class="st0" d="M157.5,64.6c-5.3,0-16.9,4.4-16.9,18.8v4h-9.1v-4c0-14.4-11.6-18.8-16.9-18.8h-1.5c-5.3,0-16.9,4.4-16.9,18.8v4
	h-9.1v-4c0-14.4-11.6-18.8-16.9-18.8h-1.5c-5.3,0-16.9,4.4-16.9,18.8v4h-9.4v-4c0-14.4-11.6-18.8-16.9-18.8
	c-5.3,0-12.2-3.2-13.5-4.6h293.8c-1.3,1.3-8.2,4.6-13.5,4.6c-5.3,0-16.9,4.4-16.9,18.8v4h-9.4v-4c0-14.4-11.6-18.8-16.9-18.8h-1.5
	c-5.3,0-16.9,4.4-16.9,18.8v4h-9.1v-4c0-14.4-11.6-18.8-16.9-18.8h-1.5c-5.3,0-16.9,4.4-16.9,18.8v4h-9.1v-4
	c0-14.4-11.6-18.8-16.9-18.8H157.5z"/>
<path class="st1" d="M10.4,58.6c-0.7,0-2.5-2.9-1.8-2.9h299.7c0.7,0-1,2.9-1.8,2.9H10.4z"/>
<rect x="156.9" y="51.8" class="st2" width="3.6" height="14.8"/>
<rect x="224.1" y="51.8" class="st2" width="3.6" height="14.8"/>
<path class="st3" d="M227.1,61.5c0,2.7,0,5,0,5h62.1c0,0,1.6,0,2.8,0c1.2,0,12.6-3.7,12.6-6.6L227.1,61.5z"/>
<path class="st4" d="M227.1,66.5l-1.6,4.7h51.3c3.2,0,8.1-2.4,11.4-4.7L227.1,66.5z"/>
<path d="M225.5,71.2h51.3c3.2,0,8.1-2.4,11.4-4.7l1.1,0c-2.4,2.4-8.2,6.8-12.5,6.8h-51.3V71.2z"/>
<path class="st5" d="M227.1,66.5l-1.6,4.7h51.3c3.2,0,8.1-2.4,11.4-4.7L227.1,66.5z"/>
<path d="M225.5,71.2h51.3c3.2,0,8.1-2.4,11.4-4.7l1.1,0c-2.4,2.4-8.2,6.8-12.5,6.8h-51.3V71.2z"/>
<path class="st5" d="M227.1,53.3c0,1.3,0,5,0,8.1l77.6-1.5c0-1.8-9.1-6.9-12.2-8.7L227.1,53.3z"/>
<path class="st6" d="M304.6,59.6c0.1,0.1,0.1,0.2,0.1,0.3c0,1.3-2.3,2.8-4.9,4c-3.7-1.6-7.5-2.4-9.5-2.4c-2.1,0-63.1,0.8-63.1,0.8
	c0-0.6,0-1.2,0-1.8L304.6,59.6z"/>
<path class="st3" d="M227.1,53.3l7.1-0.1l42.1-0.2l5-0.1l3.1,0h1.3v-1.6l6.8-0.1c-0.1,0-0.1-0.1-0.2-0.1c-3.1-1.8-6.8-1.9-12.6-1.9
	c-5.9,0-46.6,0.3-48.9,0.3C228.5,49.6,227.1,51,227.1,53.3z"/>
<path class="st2" d="M292.6,51.4c2.1,1.2,6.6,3.7,9.4,5.8c0,0-16.3,0.2-16.3,0.2v-6L292.6,51.4z"/>
<polygon class="st2" points="233.4,51.8 236.9,57.7 273.6,57.7 277.1,51.8 "/>
<rect x="281.4" y="51.5" class="st2" width="3.1" height="6"/>
<rect x="89.5" y="51.8" class="st2" width="3.6" height="14.8"/>
<path class="st5" d="M157.5,53.3c0,1.3,0,5,0,8.1h-65c0-3.2,0-6.9,0-8.1H157.5z"/>
<path class="st3" d="M157.5,53.3c0-2.4-1.5-3.7-3.8-3.7H96.3c-2.4,0-3.8,1.3-3.8,3.7H157.5z"/>
<path class="st6" d="M157.5,60.5c0,0.6,0,1.2,0,1.8h-65c0-0.6,0-1.2,0-1.8H157.5z"/>
<polygon class="st2" points="151.6,51.8 148,57.7 102,57.7 98.4,51.8 "/>
<path class="st3" d="M157.5,66.5c0,0,0-2.3,0-5h-65c0,2.7,0,5,0,5H157.5z"/>
<line class="st4" x1="92.5" y1="66.5" x2="94.1" y2="71.2"/>
<line class="st4" x1="157.5" y1="66.5" x2="155.9" y2="71.2"/>
<polygon class="st5" points="157.5,66.5 155.9,71.2 94.1,71.2 92.5,66.5 "/>
<rect x="94.1" y="71.2" width="61.8" height="2.1"/>
<path class="st3" d="M90.1,61.5c0,2.7,0,5,0,5H28c0,0-1.6,0-2.8,0s-12.6-3.7-12.6-6.6L90.1,61.5z"/>
<path class="st4" d="M90.2,66.5l1.6,4.7H40.5c-3.2,0-8.1-2.4-11.4-4.7L90.2,66.5z"/>
<path d="M91.8,71.2H40.5c-3.2,0-8.1-2.4-11.4-4.7l-1.1,0c2.4,2.4,8.2,6.8,12.5,6.8h51.3V71.2z"/>
<path class="st5" d="M90.2,66.5l1.6,4.7H40.5c-3.2,0-8.1-2.4-11.4-4.7L90.2,66.5z"/>
<path d="M91.8,71.2H40.5c-3.2,0-8.1-2.4-11.4-4.7l-1.1,0c2.4,2.4,8.2,6.8,12.5,6.8h51.3V71.2z"/>
<path class="st5" d="M90.1,53.3c0,1.3,0,5,0,8.1l-77.6-1.5c0-1.8,9.1-6.9,12.2-8.7L90.1,53.3z"/>
<path class="st6" d="M12.7,59.6c-0.1,0.1-0.1,0.2-0.1,0.3c0,1.3,2.3,2.8,4.9,4c3.7-1.6,7.5-2.4,9.5-2.4c2.1,0,63.1,0.8,63.1,0.8
	c0-0.6,0-1.2,0-1.8L12.7,59.6z"/>
<path class="st3" d="M90.2,53.3L83,53.2l-42.1-0.2l-5-0.1l-3.1,0h-1.3v-1.6l-6.8-0.1c0.1,0,0.1-0.1,0.2-0.1
	c3.1-1.8,6.8-1.9,12.6-1.9c5.9,0,46.6,0.3,48.9,0.3C88.7,49.6,90.2,51,90.2,53.3z"/>
<path class="st2" d="M24.6,51.4c-2.1,1.2-6.6,3.7-9.4,5.8c0,0,16.3,0.2,16.3,0.2v-6L24.6,51.4z"/>
<polygon class="st2" points="83.9,51.8 80.3,57.7 43.7,57.7 40.1,51.8 "/>
<rect x="32.7" y="51.5" class="st2" width="3.1" height="6"/>
<path class="st5" d="M224.9,53.3c0,1.3,0,5,0,8.1h-65c0-3.2,0-6.9,0-8.1H224.9z"/>
<path class="st3" d="M224.9,53.3c0-2.4-1.5-3.7-3.8-3.7h-57.4c-2.4,0-3.8,1.3-3.8,3.7H224.9z"/>
<path class="st6" d="M224.9,60.5c0,0.6,0,1.2,0,1.8h-65c0-0.6,0-1.2,0-1.8H224.9z"/>
<polygon class="st2" points="219,51.8 215.4,57.7 169.4,57.7 165.8,51.8 "/>
<path class="st3" d="M224.9,66.5c0,0,0-2.3,0-5h-65c0,2.7,0,5,0,5H224.9z"/>
<polygon class="st5" points="224.9,66.5 223.3,71.2 161.5,71.2 159.9,66.5 "/>
<rect x="161.5" y="71.2" width="61.8" height="2.1"/>
</svg>
